<svg viewBox="0 0 48 48" fill="none" xmlns="http://www.w3.org/2000/svg">
  <path fill-rule="evenodd" clip-rule="evenodd"
    d="M26.9472 23.9986L41.3899 38.4429C42.203 39.2561 42.203 40.5748 41.3812 41.4007C40.9859 41.788 40.4592 42 39.9154 42C39.3696 42 38.8412 41.7884 38.4407 41.392L24 26.9481L9.55041 41.4007C9.15516 41.788 8.62843 42 8.08463 42C7.53885 42 7.01042 41.7884 6.60788 41.3899C5.79701 40.5748 5.79701 39.2561 6.61005 38.4429L21.0511 24.0004L6.61224 9.55836C5.79665 8.74687 5.79665 7.4265 6.61224 6.60666C7.42557 5.79742 8.74433 5.79742 9.55567 6.60884L23.9982 21.0529L38.4412 6.60666C39.2542 5.79778 40.5713 5.79778 41.3886 6.61102C42.1998 7.4265 42.1998 8.74687 41.3865 9.55613L26.9472 23.9986Z"
    fill="currentColor" />
</svg>